<svg width="30" height="30" viewBox="0 0 30 30" fill="none" xmlns="http://www.w3.org/2000/svg">
<path d="M23.9224 28.7964C22.2893 30.3795 20.5062 30.1295 18.7897 29.3796C16.9733 28.6131 15.3068 28.5797 13.3904 29.3796C10.9907 30.4128 9.72421 30.1129 8.29106 28.7964C0.158753 20.4141 1.3586 7.64903 10.5908 7.18243C12.8405 7.29908 14.407 8.4156 15.7235 8.51559C17.6899 8.11564 19.573 6.96579 21.6727 7.11577C24.1891 7.31574 26.0888 8.31562 27.3387 10.1154C22.1393 13.2317 23.3725 20.0808 28.1386 21.9972C27.1887 24.4969 25.9555 26.9799 23.9058 28.813L23.9224 28.7964ZM15.5568 7.08244C15.3068 3.36624 18.3231 0.299962 21.7894 0C22.2726 4.29946 17.8898 7.49905 15.5568 7.08244Z" fill="black"/>
</svg>
