<svg width="40" height="40" viewBox="0 0 40 40" fill="none" xmlns="http://www.w3.org/2000/svg">
<path d="M20 33.3334C23.5363 33.3334 26.9276 31.9286 29.4281 29.4281C31.9286 26.9276 33.3334 23.5363 33.3334 20C33.3334 16.4638 31.9286 13.0724 29.4281 10.572C26.9276 8.07147 23.5363 6.66671 20 6.66671C16.4638 6.66671 13.0724 8.07147 10.572 10.572C8.07147 13.0724 6.66671 16.4638 6.66671 20C6.66671 23.5363 8.07147 26.9276 10.572 29.4281C13.0724 31.9286 16.4638 33.3334 20 33.3334ZM20 3.33337C22.1887 3.33337 24.356 3.76447 26.3781 4.60205C28.4002 5.43963 30.2375 6.66728 31.7852 8.21493C33.3328 9.76257 34.5605 11.5999 35.398 13.622C36.2356 15.6441 36.6667 17.8113 36.6667 20C36.6667 24.4203 34.9108 28.6595 31.7852 31.7852C28.6595 34.9108 24.4203 36.6667 20 36.6667C10.7834 36.6667 3.33337 29.1667 3.33337 20C3.33337 15.5798 5.08932 11.3405 8.21493 8.21493C11.3405 5.08932 15.5798 3.33337 20 3.33337ZM20.8334 11.6667V20.4167L28.3334 24.8667L27.0834 26.9167L18.3334 21.6667V11.6667H20.8334Z" fill="black"/>
</svg>
