<svg width="30" height="30" viewBox="0 0 30 30" fill="none" xmlns="http://www.w3.org/2000/svg">
<g clip-path="url(#clip0_2244_2212)">
<path d="M10.4508 0.987401C7.45335 2.02725 4.86834 4.00092 3.07548 6.6185C1.28262 9.23608 0.376419 12.3596 0.489976 15.5303C0.603533 18.701 1.73087 21.7517 3.70638 24.2343C5.6819 26.7169 8.40148 28.5006 11.4657 29.3233C13.9499 29.9643 16.5526 29.9925 19.05 29.4054C21.3125 28.8972 23.4042 27.8101 25.1203 26.2507C26.9065 24.5781 28.2029 22.4502 28.8703 20.096C29.5958 17.5358 29.7249 14.8435 29.2477 12.2257H15.2977V18.0124H23.3766C23.2151 18.9353 22.8691 19.8162 22.3593 20.6023C21.8495 21.3884 21.1863 22.0636 20.4094 22.5874C19.4229 23.24 18.3108 23.6791 17.1446 23.8765C15.9749 24.094 14.7752 24.094 13.6055 23.8765C12.42 23.6314 11.2985 23.1421 10.3125 22.4397C8.72851 21.3185 7.53912 19.7255 6.9141 17.8882C6.2785 16.0164 6.2785 13.9873 6.9141 12.1155C7.359 10.8035 8.09449 9.60897 9.06566 8.62099C10.177 7.46962 11.5841 6.64661 13.1324 6.24227C14.6808 5.83792 16.3106 5.86786 17.843 6.32881C19.0401 6.69629 20.1348 7.33835 21.0399 8.20381C21.9508 7.29756 22.8602 6.38896 23.768 5.47803C24.2368 4.98818 24.7477 4.52178 25.2094 4.02021C23.8279 2.73461 22.2063 1.73425 20.4375 1.07646C17.2165 -0.0930916 13.6922 -0.124522 10.4508 0.987401Z" fill="black"/>
<path d="M10.4504 0.986587C13.6915 -0.126092 17.2158 -0.0954888 20.4371 1.07331C22.2062 1.73556 23.8271 2.74074 25.2066 4.03112C24.7379 4.53268 24.2434 5.00143 23.7652 5.48893C22.8559 6.39674 21.9473 7.30143 21.0395 8.20299C20.1344 7.33753 19.0397 6.69547 17.8426 6.32799C16.3106 5.86543 14.6809 5.83376 13.1322 6.23645C11.5834 6.63914 10.1755 7.46064 9.06289 8.61081C8.09172 9.59878 7.35623 10.7933 6.91133 12.1053L2.05273 8.34362C3.79182 4.89493 6.80293 2.25696 10.4504 0.986587Z" fill="#E33629"/>
<path d="M0.763275 12.0703C1.02442 10.7761 1.45797 9.52272 2.05234 8.34375L6.91093 12.1148C6.27534 13.9866 6.27534 16.0158 6.91093 17.8875C5.29218 19.1375 3.67265 20.3938 2.05234 21.6563C0.564409 18.6945 0.110617 15.3199 0.763275 12.0703Z" fill="#F8BD00"/>
<path d="M15.2979 12.2227H29.2479C29.7251 14.8405 29.596 17.5328 28.8706 20.093C28.2032 22.4472 26.9067 24.575 25.1206 26.2477C23.5526 25.0242 21.9776 23.8102 20.4096 22.5867C21.187 22.0624 21.8505 21.3865 22.3604 20.5995C22.8702 19.8126 23.216 18.9308 23.3768 18.007H15.2979C15.2956 16.0805 15.2979 14.1516 15.2979 12.2227Z" fill="#587DBD"/>
<path d="M2.05078 21.6555C3.67109 20.4055 5.29062 19.1492 6.90937 17.8867C7.53564 19.7247 8.72673 21.3177 10.3125 22.4383C11.3016 23.1373 12.4255 23.6227 13.6125 23.8633C14.7822 24.0808 15.9819 24.0808 17.1516 23.8633C18.3178 23.6659 19.4299 23.2268 20.4164 22.5742C21.9844 23.7977 23.5594 25.0117 25.1273 26.2352C23.4115 27.7955 21.3197 28.8833 19.057 29.3922C16.5596 29.9793 13.9569 29.9512 11.4727 29.3102C9.50789 28.7856 7.67268 27.8608 6.08203 26.5938C4.39842 25.2571 3.02333 23.5726 2.05078 21.6555Z" fill="#319F43"/>
</g>
<defs>
<clipPath id="clip0_2244_2212">
<rect width="30" height="30" fill="white"/>
</clipPath>
</defs>
</svg>
