<svg width="40" height="40" viewBox="0 0 40 40" fill="none" xmlns="http://www.w3.org/2000/svg">
<path d="M3.33331 33.3333V6.66663H36.6666V33.3333H3.33331ZM13.3333 28.3333H16.6666V26.6666H18.3333C18.8055 26.6666 19.2016 26.5066 19.5216 26.1866C19.8416 25.8666 20.0011 25.4711 20 25V20C20 19.5277 19.84 19.1322 19.52 18.8133C19.2 18.4944 18.8044 18.3344 18.3333 18.3333H13.3333V16.6666H20V13.3333H16.6666V11.6666H13.3333V13.3333H11.6666C11.1944 13.3333 10.7989 13.4933 10.48 13.8133C10.1611 14.1333 10.0011 14.5288 9.99998 15V20C9.99998 20.4722 10.16 20.8683 10.48 21.1883C10.8 21.5083 11.1955 21.6677 11.6666 21.6666H16.6666V23.3333H9.99998V26.6666H13.3333V28.3333ZM26.6666 27.0833L30 23.75H23.3333L26.6666 27.0833ZM23.3333 16.6666H30L26.6666 13.3333L23.3333 16.6666Z" fill="black"/>
</svg>
