<svg width="37" height="30" viewBox="0 0 37 30" fill="none" xmlns="http://www.w3.org/2000/svg">
<g clip-path="url(#clip0_2244_2223)">
<path d="M37 3.65231C35.6145 4.26197 34.1449 4.6621 32.6401 4.83939C34.2075 3.90637 35.411 2.42891 35.9777 0.668527C34.4877 1.54664 32.8574 2.16536 31.1575 2.49795C29.7727 1.03283 27.8 0.117188 25.6166 0.117188C21.4243 0.117188 18.0254 3.49269 18.0254 7.65594C18.0254 8.2469 18.0926 8.82221 18.2219 9.37412C11.9131 9.05963 6.31977 6.05834 2.57569 1.49719C1.92241 2.61063 1.54807 3.9058 1.54807 5.28724C1.54807 7.90283 2.88831 10.2102 4.92505 11.5623C3.71957 11.5248 2.54062 11.2015 1.48665 10.6192C1.48626 10.6508 1.48612 10.6824 1.48621 10.7141C1.48621 14.3668 4.10281 17.4138 7.57532 18.1064C6.45749 18.4083 5.28498 18.4525 4.14732 18.2356C5.11323 21.2307 7.9167 23.4102 11.2383 23.4713C8.64037 25.4932 5.36717 26.6985 1.81083 26.6985C1.19802 26.6985 0.593879 26.6627 0 26.5931C3.35934 28.7322 7.34941 29.9802 11.6362 29.9802C25.5989 29.9802 33.2341 18.4925 33.2341 8.53025C33.2341 8.20326 33.2268 7.87814 33.2121 7.55489C34.6981 6.48781 35.9808 5.1663 37 3.65231Z" fill="#55ACEE"/>
</g>
<defs>
<clipPath id="clip0_2244_2223">
<rect width="37" height="30" fill="white"/>
</clipPath>
</defs>
</svg>
