<svg width="40" height="40" viewBox="0 0 40 40" fill="none" xmlns="http://www.w3.org/2000/svg">
<path d="M20 35L0 15C2.63889 12.3055 5.68778 10.2427 9.14667 8.81163C12.6056 7.38052 16.2233 6.66552 20 6.66663C23.7767 6.66774 27.395 7.38329 30.855 8.81329C34.315 10.2433 37.3633 12.3055 40 15L35.875 19.125C35.2361 18.8194 34.5622 18.59 33.8533 18.4366C33.1444 18.2833 32.4294 18.2072 31.7083 18.2083C28.9028 18.2083 26.5139 19.1944 24.5417 21.1666C22.5694 23.1388 21.5833 25.5277 21.5833 28.3333C21.5833 29.0555 21.66 29.7711 21.8133 30.48C21.9667 31.1889 22.1956 31.8622 22.5 32.5L20 35ZM30 35V30H25V26.6666H30V21.6666H33.3333V26.6666H38.3333V30H33.3333V35H30Z" fill="black"/>
</svg>
